<mxfile host="app.diagrams.net" modified="2022-11-14T22:31:44.034Z" agent="5.0 (Windows NT 10.0; Win64; x64) AppleWebKit/537.36 (KHTML, like Gecko) Chrome/107.0.0.0 Safari/537.36 Edg/107.0.1418.42" etag="w-IHlt6l1Fl6_LznQL0E" version="20.5.3" type="github">
  <diagram id="_PR5rB8g3A7-WBQryCZw" name="Page-1">
    <mxGraphModel dx="3121" dy="2351" grid="1" gridSize="10" guides="1" tooltips="1" connect="1" arrows="1" fold="1" page="1" pageScale="1" pageWidth="827" pageHeight="1169" math="0" shadow="0">
      <root>
        <mxCell id="0" />
        <mxCell id="1" parent="0" />
        <mxCell id="3uMeJU92-yCko1yZ4MZb-9" value="predict imagen" style="swimlane;" parent="1" vertex="1">
          <mxGeometry x="30" y="-150" width="180" height="210" as="geometry" />
        </mxCell>
        <mxCell id="3uMeJU92-yCko1yZ4MZb-12" value="b64 dataimagen" style="text;html=1;align=center;verticalAlign=middle;resizable=0;points=[];autosize=1;strokeColor=none;fillColor=none;" parent="3uMeJU92-yCko1yZ4MZb-9" vertex="1">
          <mxGeometry x="25" y="65" width="110" height="30" as="geometry" />
        </mxCell>
        <mxCell id="3uMeJU92-yCko1yZ4MZb-13" value="imagen_tensor" style="text;html=1;align=center;verticalAlign=middle;resizable=0;points=[];autosize=1;strokeColor=none;fillColor=none;" parent="3uMeJU92-yCko1yZ4MZb-9" vertex="1">
          <mxGeometry x="30" y="90" width="100" height="30" as="geometry" />
        </mxCell>
        <mxCell id="3uMeJU92-yCko1yZ4MZb-14" value="resultadoPrediccion" style="text;html=1;align=center;verticalAlign=middle;resizable=0;points=[];autosize=1;strokeColor=none;fillColor=none;" parent="3uMeJU92-yCko1yZ4MZb-9" vertex="1">
          <mxGeometry x="15" y="150" width="130" height="30" as="geometry" />
        </mxCell>
        <mxCell id="3uMeJU92-yCko1yZ4MZb-15" value="Indices Equipos" style="text;html=1;align=center;verticalAlign=middle;resizable=0;points=[];autosize=1;strokeColor=none;fillColor=none;" parent="3uMeJU92-yCko1yZ4MZb-9" vertex="1">
          <mxGeometry x="25" y="120" width="110" height="30" as="geometry" />
        </mxCell>
        <mxCell id="3uMeJU92-yCko1yZ4MZb-11" value="datos formulario" style="text;html=1;align=center;verticalAlign=middle;resizable=0;points=[];autosize=1;strokeColor=none;fillColor=none;" parent="3uMeJU92-yCko1yZ4MZb-9" vertex="1">
          <mxGeometry x="25" y="35" width="110" height="30" as="geometry" />
        </mxCell>
        <mxCell id="aQJiSQy_MHR7cHqMsdCa-68" value="Respuesta" style="text;html=1;align=center;verticalAlign=middle;resizable=0;points=[];autosize=1;strokeColor=none;fillColor=none;" vertex="1" parent="3uMeJU92-yCko1yZ4MZb-9">
          <mxGeometry x="40" y="180" width="80" height="30" as="geometry" />
        </mxCell>
        <mxCell id="3uMeJU92-yCko1yZ4MZb-16" value="datos formulario" style="swimlane;" parent="1" vertex="1">
          <mxGeometry x="-620" y="-30" width="120" height="60" as="geometry" />
        </mxCell>
        <mxCell id="3uMeJU92-yCko1yZ4MZb-17" value=".png imageURL" style="text;html=1;align=center;verticalAlign=middle;resizable=0;points=[];autosize=1;strokeColor=none;fillColor=none;" parent="3uMeJU92-yCko1yZ4MZb-16" vertex="1">
          <mxGeometry x="5" y="30" width="110" height="30" as="geometry" />
        </mxCell>
        <mxCell id="3uMeJU92-yCko1yZ4MZb-18" value="indices equipos" style="swimlane;" parent="1" vertex="1">
          <mxGeometry x="130" y="120" width="120" height="60" as="geometry" />
        </mxCell>
        <mxCell id="3uMeJU92-yCko1yZ4MZb-19" value="class_indices" style="text;html=1;align=center;verticalAlign=middle;resizable=0;points=[];autosize=1;strokeColor=none;fillColor=none;" parent="3uMeJU92-yCko1yZ4MZb-18" vertex="1">
          <mxGeometry x="15" y="26" width="90" height="30" as="geometry" />
        </mxCell>
        <mxCell id="3uMeJU92-yCko1yZ4MZb-21" value="Respuesta" style="swimlane;" parent="1" vertex="1">
          <mxGeometry x="280" y="-130" width="200" height="100" as="geometry" />
        </mxCell>
        <mxCell id="3uMeJU92-yCko1yZ4MZb-23" value="Headers" style="text;html=1;align=center;verticalAlign=middle;resizable=0;points=[];autosize=1;strokeColor=none;fillColor=none;" parent="3uMeJU92-yCko1yZ4MZb-21" vertex="1">
          <mxGeometry x="65" y="30" width="70" height="30" as="geometry" />
        </mxCell>
        <mxCell id="3uMeJU92-yCko1yZ4MZb-22" value="json Response" style="text;html=1;align=center;verticalAlign=middle;resizable=0;points=[];autosize=1;strokeColor=none;fillColor=none;" parent="3uMeJU92-yCko1yZ4MZb-21" vertex="1">
          <mxGeometry x="50" y="60" width="100" height="30" as="geometry" />
        </mxCell>
        <mxCell id="3uMeJU92-yCko1yZ4MZb-26" value="HTTP POST" style="swimlane;" parent="1" vertex="1">
          <mxGeometry x="-640" y="-120" width="160" height="70" as="geometry" />
        </mxCell>
        <mxCell id="3uMeJU92-yCko1yZ4MZb-27" value="datos formulario" style="text;html=1;align=center;verticalAlign=middle;resizable=0;points=[];autosize=1;strokeColor=none;fillColor=none;" parent="3uMeJU92-yCko1yZ4MZb-26" vertex="1">
          <mxGeometry x="25" y="40" width="110" height="30" as="geometry" />
        </mxCell>
        <mxCell id="aQJiSQy_MHR7cHqMsdCa-81" value="url : /predict_imagen" style="text;html=1;align=center;verticalAlign=middle;resizable=0;points=[];autosize=1;strokeColor=none;fillColor=none;" vertex="1" parent="3uMeJU92-yCko1yZ4MZb-26">
          <mxGeometry x="20" y="20" width="130" height="30" as="geometry" />
        </mxCell>
        <mxCell id="aQJiSQy_MHR7cHqMsdCa-67" style="edgeStyle=orthogonalEdgeStyle;rounded=0;orthogonalLoop=1;jettySize=auto;html=1;endArrow=classic;endFill=1;" edge="1" parent="1" source="3uMeJU92-yCko1yZ4MZb-28">
          <mxGeometry relative="1" as="geometry">
            <mxPoint x="50" y="50" as="targetPoint" />
          </mxGeometry>
        </mxCell>
        <mxCell id="3uMeJU92-yCko1yZ4MZb-28" value="Red Neuronal" style="swimlane;startSize=23;" parent="1" vertex="1">
          <mxGeometry y="120" width="100" height="100" as="geometry" />
        </mxCell>
        <mxCell id="3uMeJU92-yCko1yZ4MZb-29" value="Parametros" style="text;html=1;align=center;verticalAlign=middle;resizable=0;points=[];autosize=1;strokeColor=none;fillColor=none;" parent="3uMeJU92-yCko1yZ4MZb-28" vertex="1">
          <mxGeometry x="5" y="24" width="90" height="30" as="geometry" />
        </mxCell>
        <mxCell id="lk8_rE0ueBQqv8fIOsy2-2" value="Clasificador" style="text;html=1;align=center;verticalAlign=middle;resizable=0;points=[];autosize=1;strokeColor=none;fillColor=none;" parent="3uMeJU92-yCko1yZ4MZb-28" vertex="1">
          <mxGeometry x="5" y="70" width="90" height="30" as="geometry" />
        </mxCell>
        <mxCell id="lk8_rE0ueBQqv8fIOsy2-1" value="Capas" style="text;html=1;align=center;verticalAlign=middle;resizable=0;points=[];autosize=1;strokeColor=none;fillColor=none;" parent="3uMeJU92-yCko1yZ4MZb-28" vertex="1">
          <mxGeometry x="20" y="45" width="60" height="30" as="geometry" />
        </mxCell>
        <mxCell id="3uMeJU92-yCko1yZ4MZb-31" value="" style="endArrow=classic;html=1;rounded=0;" parent="1" edge="1">
          <mxGeometry width="50" height="50" relative="1" as="geometry">
            <mxPoint x="-560" y="-30" as="sourcePoint" />
            <mxPoint x="-560" y="-50" as="targetPoint" />
          </mxGeometry>
        </mxCell>
        <mxCell id="3uMeJU92-yCko1yZ4MZb-37" value="" style="endArrow=classic;html=1;rounded=0;" parent="1" edge="1">
          <mxGeometry width="50" height="50" relative="1" as="geometry">
            <mxPoint x="185" y="120" as="sourcePoint" />
            <mxPoint x="185" y="50" as="targetPoint" />
          </mxGeometry>
        </mxCell>
        <mxCell id="lk8_rE0ueBQqv8fIOsy2-3" value="premier-net Compiler" style="swimlane;" parent="1" vertex="1">
          <mxGeometry x="280" y="750" width="200" height="200" as="geometry" />
        </mxCell>
        <mxCell id="lk8_rE0ueBQqv8fIOsy2-4" value="Dataset Training" style="text;html=1;align=center;verticalAlign=middle;resizable=0;points=[];autosize=1;strokeColor=none;fillColor=none;" parent="lk8_rE0ueBQqv8fIOsy2-3" vertex="1">
          <mxGeometry x="45" y="40" width="110" height="30" as="geometry" />
        </mxCell>
        <mxCell id="lk8_rE0ueBQqv8fIOsy2-5" value="Dataset Validation" style="text;html=1;align=center;verticalAlign=middle;resizable=0;points=[];autosize=1;strokeColor=none;fillColor=none;" parent="lk8_rE0ueBQqv8fIOsy2-3" vertex="1">
          <mxGeometry x="40" y="70" width="120" height="30" as="geometry" />
        </mxCell>
        <mxCell id="lk8_rE0ueBQqv8fIOsy2-6" value="VGG16" style="text;html=1;align=center;verticalAlign=middle;resizable=0;points=[];autosize=1;strokeColor=none;fillColor=none;" parent="lk8_rE0ueBQqv8fIOsy2-3" vertex="1">
          <mxGeometry x="70" y="20" width="60" height="30" as="geometry" />
        </mxCell>
        <mxCell id="lk8_rE0ueBQqv8fIOsy2-11" value="History" style="text;html=1;align=center;verticalAlign=middle;resizable=0;points=[];autosize=1;strokeColor=none;fillColor=none;" parent="lk8_rE0ueBQqv8fIOsy2-3" vertex="1">
          <mxGeometry x="70" y="130" width="60" height="30" as="geometry" />
        </mxCell>
        <mxCell id="lk8_rE0ueBQqv8fIOsy2-8" value="imageDataGen" style="text;html=1;align=center;verticalAlign=middle;resizable=0;points=[];autosize=1;strokeColor=none;fillColor=none;" parent="lk8_rE0ueBQqv8fIOsy2-3" vertex="1">
          <mxGeometry x="50" y="100" width="100" height="30" as="geometry" />
        </mxCell>
        <mxCell id="lk8_rE0ueBQqv8fIOsy2-12" value="VGG16" style="swimlane;" parent="1" vertex="1">
          <mxGeometry x="570" y="830" width="140" height="100" as="geometry" />
        </mxCell>
        <mxCell id="lk8_rE0ueBQqv8fIOsy2-14" value="weights" style="text;html=1;align=center;verticalAlign=middle;resizable=0;points=[];autosize=1;strokeColor=none;fillColor=none;" parent="lk8_rE0ueBQqv8fIOsy2-12" vertex="1">
          <mxGeometry x="40" y="24" width="60" height="30" as="geometry" />
        </mxCell>
        <mxCell id="lk8_rE0ueBQqv8fIOsy2-15" value="Classifier" style="text;html=1;align=center;verticalAlign=middle;resizable=0;points=[];autosize=1;strokeColor=none;fillColor=none;" parent="lk8_rE0ueBQqv8fIOsy2-12" vertex="1">
          <mxGeometry x="35" y="70" width="70" height="30" as="geometry" />
        </mxCell>
        <mxCell id="lk8_rE0ueBQqv8fIOsy2-16" value="convBase" style="text;html=1;align=center;verticalAlign=middle;resizable=0;points=[];autosize=1;strokeColor=none;fillColor=none;" parent="lk8_rE0ueBQqv8fIOsy2-12" vertex="1">
          <mxGeometry x="30" y="45" width="80" height="30" as="geometry" />
        </mxCell>
        <mxCell id="lk8_rE0ueBQqv8fIOsy2-17" value="Dataset Training" style="swimlane;" parent="1" vertex="1">
          <mxGeometry x="265" y="990" width="110" height="50" as="geometry" />
        </mxCell>
        <mxCell id="lk8_rE0ueBQqv8fIOsy2-18" value="Imagen" style="text;html=1;align=center;verticalAlign=middle;resizable=0;points=[];autosize=1;strokeColor=none;fillColor=none;" parent="lk8_rE0ueBQqv8fIOsy2-17" vertex="1">
          <mxGeometry x="25" y="20" width="60" height="30" as="geometry" />
        </mxCell>
        <mxCell id="lk8_rE0ueBQqv8fIOsy2-19" value="Dataset Validation" style="swimlane;" parent="1" vertex="1">
          <mxGeometry x="385" y="990" width="110" height="50" as="geometry" />
        </mxCell>
        <mxCell id="lk8_rE0ueBQqv8fIOsy2-20" value="Imagen" style="text;html=1;align=center;verticalAlign=middle;resizable=0;points=[];autosize=1;strokeColor=none;fillColor=none;" parent="lk8_rE0ueBQqv8fIOsy2-19" vertex="1">
          <mxGeometry x="25" y="20" width="60" height="30" as="geometry" />
        </mxCell>
        <mxCell id="lk8_rE0ueBQqv8fIOsy2-21" value="History" style="swimlane;" parent="1" vertex="1">
          <mxGeometry x="70" y="830" width="140" height="110" as="geometry" />
        </mxCell>
        <mxCell id="lk8_rE0ueBQqv8fIOsy2-22" value="Class indices" style="text;html=1;align=center;verticalAlign=middle;resizable=0;points=[];autosize=1;strokeColor=none;fillColor=none;" parent="lk8_rE0ueBQqv8fIOsy2-21" vertex="1">
          <mxGeometry x="25" y="25" width="90" height="30" as="geometry" />
        </mxCell>
        <mxCell id="lk8_rE0ueBQqv8fIOsy2-23" value="model accuracy&amp;nbsp;" style="text;html=1;align=center;verticalAlign=middle;resizable=0;points=[];autosize=1;strokeColor=none;fillColor=none;" parent="lk8_rE0ueBQqv8fIOsy2-21" vertex="1">
          <mxGeometry x="15" y="50" width="110" height="30" as="geometry" />
        </mxCell>
        <mxCell id="lk8_rE0ueBQqv8fIOsy2-24" value="model loss" style="text;html=1;align=center;verticalAlign=middle;resizable=0;points=[];autosize=1;strokeColor=none;fillColor=none;" parent="1" vertex="1">
          <mxGeometry x="100" y="905" width="80" height="30" as="geometry" />
        </mxCell>
        <mxCell id="lk8_rE0ueBQqv8fIOsy2-26" value="" style="endArrow=classic;html=1;rounded=0;exitX=1;exitY=0.5;exitDx=0;exitDy=0;" parent="1" source="lk8_rE0ueBQqv8fIOsy2-21" edge="1">
          <mxGeometry width="50" height="50" relative="1" as="geometry">
            <mxPoint x="210" y="930" as="sourcePoint" />
            <mxPoint x="280" y="885" as="targetPoint" />
          </mxGeometry>
        </mxCell>
        <mxCell id="lk8_rE0ueBQqv8fIOsy2-27" value="" style="endArrow=none;html=1;rounded=0;entryX=0;entryY=0.5;entryDx=0;entryDy=0;endFill=0;startArrow=classic;startFill=1;" parent="1" target="lk8_rE0ueBQqv8fIOsy2-12" edge="1">
          <mxGeometry width="50" height="50" relative="1" as="geometry">
            <mxPoint x="480" y="880" as="sourcePoint" />
            <mxPoint x="530" y="750" as="targetPoint" />
          </mxGeometry>
        </mxCell>
        <mxCell id="lk8_rE0ueBQqv8fIOsy2-29" value="" style="endArrow=classic;html=1;rounded=0;" parent="1" edge="1">
          <mxGeometry width="50" height="50" relative="1" as="geometry">
            <mxPoint x="335" y="990" as="sourcePoint" />
            <mxPoint x="335" y="950" as="targetPoint" />
          </mxGeometry>
        </mxCell>
        <mxCell id="lk8_rE0ueBQqv8fIOsy2-30" value="" style="endArrow=classic;html=1;rounded=0;entryX=0.75;entryY=1;entryDx=0;entryDy=0;" parent="1" target="lk8_rE0ueBQqv8fIOsy2-3" edge="1">
          <mxGeometry width="50" height="50" relative="1" as="geometry">
            <mxPoint x="430" y="990" as="sourcePoint" />
            <mxPoint x="480" y="940" as="targetPoint" />
          </mxGeometry>
        </mxCell>
        <mxCell id="aQJiSQy_MHR7cHqMsdCa-47" style="edgeStyle=orthogonalEdgeStyle;rounded=0;orthogonalLoop=1;jettySize=auto;html=1;exitX=0.5;exitY=0;exitDx=0;exitDy=0;entryX=0.5;entryY=1;entryDx=0;entryDy=0;" edge="1" parent="1" source="aQJiSQy_MHR7cHqMsdCa-1" target="aQJiSQy_MHR7cHqMsdCa-3">
          <mxGeometry relative="1" as="geometry" />
        </mxCell>
        <mxCell id="aQJiSQy_MHR7cHqMsdCa-48" style="edgeStyle=orthogonalEdgeStyle;rounded=0;orthogonalLoop=1;jettySize=auto;html=1;exitX=1;exitY=0.5;exitDx=0;exitDy=0;" edge="1" parent="1" source="aQJiSQy_MHR7cHqMsdCa-1">
          <mxGeometry relative="1" as="geometry">
            <mxPoint x="-640" y="-90" as="targetPoint" />
          </mxGeometry>
        </mxCell>
        <mxCell id="aQJiSQy_MHR7cHqMsdCa-88" style="edgeStyle=orthogonalEdgeStyle;rounded=0;orthogonalLoop=1;jettySize=auto;html=1;exitX=0.5;exitY=1;exitDx=0;exitDy=0;entryX=0;entryY=0.5;entryDx=0;entryDy=0;endArrow=classic;endFill=1;" edge="1" parent="1" source="aQJiSQy_MHR7cHqMsdCa-1" target="aQJiSQy_MHR7cHqMsdCa-85">
          <mxGeometry relative="1" as="geometry" />
        </mxCell>
        <mxCell id="aQJiSQy_MHR7cHqMsdCa-1" value="Capa Front-End Dominio" style="swimlane;" vertex="1" parent="1">
          <mxGeometry x="-930" y="-130" width="160" height="80" as="geometry" />
        </mxCell>
        <mxCell id="aQJiSQy_MHR7cHqMsdCa-2" value="Documento HTML&lt;br&gt;app.js" style="text;html=1;align=center;verticalAlign=middle;resizable=0;points=[];autosize=1;strokeColor=none;fillColor=none;" vertex="1" parent="aQJiSQy_MHR7cHqMsdCa-1">
          <mxGeometry x="23" y="35" width="120" height="40" as="geometry" />
        </mxCell>
        <mxCell id="aQJiSQy_MHR7cHqMsdCa-49" style="edgeStyle=orthogonalEdgeStyle;rounded=0;orthogonalLoop=1;jettySize=auto;html=1;exitX=0.5;exitY=0;exitDx=0;exitDy=0;" edge="1" parent="1" source="aQJiSQy_MHR7cHqMsdCa-3">
          <mxGeometry relative="1" as="geometry">
            <mxPoint x="-850" y="-470" as="targetPoint" />
          </mxGeometry>
        </mxCell>
        <mxCell id="aQJiSQy_MHR7cHqMsdCa-3" value="HTTP POST" style="swimlane;" vertex="1" parent="1">
          <mxGeometry x="-930" y="-350" width="160" height="80" as="geometry" />
        </mxCell>
        <mxCell id="aQJiSQy_MHR7cHqMsdCa-4" value="headers&lt;br&gt;API Football Endpoint" style="text;html=1;align=center;verticalAlign=middle;resizable=0;points=[];autosize=1;strokeColor=none;fillColor=none;" vertex="1" parent="aQJiSQy_MHR7cHqMsdCa-3">
          <mxGeometry x="10" y="30" width="140" height="40" as="geometry" />
        </mxCell>
        <mxCell id="aQJiSQy_MHR7cHqMsdCa-6" value="API Sports" style="swimlane;" vertex="1" parent="1">
          <mxGeometry x="-940" y="-680" width="180" height="210" as="geometry" />
        </mxCell>
        <mxCell id="aQJiSQy_MHR7cHqMsdCa-13" value="GET" style="text;html=1;align=center;verticalAlign=middle;resizable=0;points=[];autosize=1;strokeColor=none;fillColor=none;" vertex="1" parent="aQJiSQy_MHR7cHqMsdCa-6">
          <mxGeometry x="63" y="110" width="50" height="30" as="geometry" />
        </mxCell>
        <mxCell id="aQJiSQy_MHR7cHqMsdCa-23" value="Cuenta del sistema" style="text;html=1;align=center;verticalAlign=middle;resizable=0;points=[];autosize=1;strokeColor=none;fillColor=none;" vertex="1" parent="aQJiSQy_MHR7cHqMsdCa-6">
          <mxGeometry x="23" y="170" width="130" height="30" as="geometry" />
        </mxCell>
        <mxCell id="aQJiSQy_MHR7cHqMsdCa-30" value="Dashboard" style="text;html=1;align=center;verticalAlign=middle;resizable=0;points=[];autosize=1;strokeColor=none;fillColor=none;" vertex="1" parent="aQJiSQy_MHR7cHqMsdCa-6">
          <mxGeometry x="48" y="80" width="80" height="30" as="geometry" />
        </mxCell>
        <mxCell id="aQJiSQy_MHR7cHqMsdCa-32" value="API Football Endpoints" style="text;html=1;align=center;verticalAlign=middle;resizable=0;points=[];autosize=1;strokeColor=none;fillColor=none;" vertex="1" parent="aQJiSQy_MHR7cHqMsdCa-6">
          <mxGeometry x="15" y="40" width="150" height="30" as="geometry" />
        </mxCell>
        <mxCell id="aQJiSQy_MHR7cHqMsdCa-33" value="Servidores API" style="text;html=1;align=center;verticalAlign=middle;resizable=0;points=[];autosize=1;strokeColor=none;fillColor=none;" vertex="1" parent="aQJiSQy_MHR7cHqMsdCa-6">
          <mxGeometry x="40" y="140" width="100" height="30" as="geometry" />
        </mxCell>
        <mxCell id="aQJiSQy_MHR7cHqMsdCa-15" value="GET" style="swimlane;startSize=23;" vertex="1" parent="1">
          <mxGeometry x="-700" y="-680" width="160" height="70" as="geometry" />
        </mxCell>
        <mxCell id="aQJiSQy_MHR7cHqMsdCa-16" value="headers permitidos" style="text;html=1;align=center;verticalAlign=middle;resizable=0;points=[];autosize=1;strokeColor=none;fillColor=none;" vertex="1" parent="aQJiSQy_MHR7cHqMsdCa-15">
          <mxGeometry x="15" y="35" width="130" height="30" as="geometry" />
        </mxCell>
        <mxCell id="aQJiSQy_MHR7cHqMsdCa-64" style="edgeStyle=orthogonalEdgeStyle;rounded=0;orthogonalLoop=1;jettySize=auto;html=1;entryX=0.5;entryY=1;entryDx=0;entryDy=0;endArrow=classic;endFill=1;" edge="1" parent="1" source="aQJiSQy_MHR7cHqMsdCa-17" target="aQJiSQy_MHR7cHqMsdCa-15">
          <mxGeometry relative="1" as="geometry" />
        </mxCell>
        <mxCell id="aQJiSQy_MHR7cHqMsdCa-17" value="headers" style="swimlane;" vertex="1" parent="1">
          <mxGeometry x="-687.5" y="-550" width="135" height="74" as="geometry" />
        </mxCell>
        <mxCell id="aQJiSQy_MHR7cHqMsdCa-35" value="x-rapidapi-host" style="text;html=1;align=center;verticalAlign=middle;resizable=0;points=[];autosize=1;strokeColor=none;fillColor=none;" vertex="1" parent="aQJiSQy_MHR7cHqMsdCa-17">
          <mxGeometry x="17.5" y="24" width="100" height="30" as="geometry" />
        </mxCell>
        <mxCell id="aQJiSQy_MHR7cHqMsdCa-36" value="x-rapidapi-key" style="text;html=1;align=center;verticalAlign=middle;resizable=0;points=[];autosize=1;strokeColor=none;fillColor=none;" vertex="1" parent="aQJiSQy_MHR7cHqMsdCa-17">
          <mxGeometry x="17.5" y="44" width="100" height="30" as="geometry" />
        </mxCell>
        <mxCell id="aQJiSQy_MHR7cHqMsdCa-20" value="API Football Endpoints" style="swimlane;" vertex="1" parent="1">
          <mxGeometry x="-940" y="-1050" width="180" height="290" as="geometry" />
        </mxCell>
        <mxCell id="aQJiSQy_MHR7cHqMsdCa-39" value="Paises" style="text;html=1;align=center;verticalAlign=middle;resizable=0;points=[];autosize=1;strokeColor=none;fillColor=none;" vertex="1" parent="aQJiSQy_MHR7cHqMsdCa-20">
          <mxGeometry x="53" y="50" width="60" height="30" as="geometry" />
        </mxCell>
        <mxCell id="aQJiSQy_MHR7cHqMsdCa-40" value="Ligas" style="text;html=1;align=center;verticalAlign=middle;resizable=0;points=[];autosize=1;strokeColor=none;fillColor=none;" vertex="1" parent="aQJiSQy_MHR7cHqMsdCa-20">
          <mxGeometry x="58" y="75" width="50" height="30" as="geometry" />
        </mxCell>
        <mxCell id="aQJiSQy_MHR7cHqMsdCa-41" value="Fixtures" style="text;html=1;align=center;verticalAlign=middle;resizable=0;points=[];autosize=1;strokeColor=none;fillColor=none;" vertex="1" parent="aQJiSQy_MHR7cHqMsdCa-20">
          <mxGeometry x="48" y="105" width="70" height="30" as="geometry" />
        </mxCell>
        <mxCell id="aQJiSQy_MHR7cHqMsdCa-42" value="Goleadores" style="text;html=1;align=center;verticalAlign=middle;resizable=0;points=[];autosize=1;strokeColor=none;fillColor=none;" vertex="1" parent="aQJiSQy_MHR7cHqMsdCa-20">
          <mxGeometry x="38" y="135" width="90" height="30" as="geometry" />
        </mxCell>
        <mxCell id="aQJiSQy_MHR7cHqMsdCa-43" value="Equipos" style="text;html=1;align=center;verticalAlign=middle;resizable=0;points=[];autosize=1;strokeColor=none;fillColor=none;" vertex="1" parent="aQJiSQy_MHR7cHqMsdCa-20">
          <mxGeometry x="48" y="160" width="70" height="30" as="geometry" />
        </mxCell>
        <mxCell id="aQJiSQy_MHR7cHqMsdCa-44" value="Posiciones" style="text;html=1;align=center;verticalAlign=middle;resizable=0;points=[];autosize=1;strokeColor=none;fillColor=none;" vertex="1" parent="aQJiSQy_MHR7cHqMsdCa-20">
          <mxGeometry x="43" y="190" width="80" height="30" as="geometry" />
        </mxCell>
        <mxCell id="aQJiSQy_MHR7cHqMsdCa-45" value="Logos" style="text;html=1;align=center;verticalAlign=middle;resizable=0;points=[];autosize=1;strokeColor=none;fillColor=none;" vertex="1" parent="aQJiSQy_MHR7cHqMsdCa-20">
          <mxGeometry x="53" y="220" width="60" height="30" as="geometry" />
        </mxCell>
        <mxCell id="aQJiSQy_MHR7cHqMsdCa-46" value="Apuestas" style="text;html=1;align=center;verticalAlign=middle;resizable=0;points=[];autosize=1;strokeColor=none;fillColor=none;" vertex="1" parent="aQJiSQy_MHR7cHqMsdCa-20">
          <mxGeometry x="48" y="250" width="70" height="30" as="geometry" />
        </mxCell>
        <mxCell id="aQJiSQy_MHR7cHqMsdCa-38" value="Temporadas" style="text;html=1;align=center;verticalAlign=middle;resizable=0;points=[];autosize=1;strokeColor=none;fillColor=none;" vertex="1" parent="aQJiSQy_MHR7cHqMsdCa-20">
          <mxGeometry x="38" y="30" width="90" height="30" as="geometry" />
        </mxCell>
        <mxCell id="aQJiSQy_MHR7cHqMsdCa-24" value="Cuenta del sistema" style="swimlane;" vertex="1" parent="1">
          <mxGeometry x="-1200" y="-680" width="180" height="210" as="geometry" />
        </mxCell>
        <mxCell id="aQJiSQy_MHR7cHqMsdCa-25" value="Llave de solicitudes" style="text;html=1;align=center;verticalAlign=middle;resizable=0;points=[];autosize=1;strokeColor=none;fillColor=none;" vertex="1" parent="aQJiSQy_MHR7cHqMsdCa-24">
          <mxGeometry x="25" y="170" width="130" height="30" as="geometry" />
        </mxCell>
        <mxCell id="aQJiSQy_MHR7cHqMsdCa-27" value="Limite de solicitudes diario" style="text;html=1;align=center;verticalAlign=middle;resizable=0;points=[];autosize=1;strokeColor=none;fillColor=none;" vertex="1" parent="aQJiSQy_MHR7cHqMsdCa-24">
          <mxGeometry x="10" y="90" width="160" height="30" as="geometry" />
        </mxCell>
        <mxCell id="aQJiSQy_MHR7cHqMsdCa-28" value="Solicitudes disponibles" style="text;html=1;align=center;verticalAlign=middle;resizable=0;points=[];autosize=1;strokeColor=none;fillColor=none;" vertex="1" parent="aQJiSQy_MHR7cHqMsdCa-24">
          <mxGeometry x="20" y="130" width="140" height="30" as="geometry" />
        </mxCell>
        <mxCell id="aQJiSQy_MHR7cHqMsdCa-31" value="Suscripción activa" style="text;html=1;align=center;verticalAlign=middle;resizable=0;points=[];autosize=1;strokeColor=none;fillColor=none;" vertex="1" parent="aQJiSQy_MHR7cHqMsdCa-24">
          <mxGeometry x="30" y="60" width="120" height="30" as="geometry" />
        </mxCell>
        <mxCell id="aQJiSQy_MHR7cHqMsdCa-34" value="Perfil" style="text;html=1;align=center;verticalAlign=middle;resizable=0;points=[];autosize=1;strokeColor=none;fillColor=none;" vertex="1" parent="aQJiSQy_MHR7cHqMsdCa-24">
          <mxGeometry x="65" y="30" width="50" height="30" as="geometry" />
        </mxCell>
        <mxCell id="aQJiSQy_MHR7cHqMsdCa-63" value="" style="endArrow=classic;startArrow=classic;html=1;rounded=0;exitX=0.5;exitY=0;exitDx=0;exitDy=0;" edge="1" parent="1" source="aQJiSQy_MHR7cHqMsdCa-6">
          <mxGeometry width="50" height="50" relative="1" as="geometry">
            <mxPoint x="-850" y="-690" as="sourcePoint" />
            <mxPoint x="-850" y="-760" as="targetPoint" />
          </mxGeometry>
        </mxCell>
        <mxCell id="aQJiSQy_MHR7cHqMsdCa-65" style="edgeStyle=orthogonalEdgeStyle;rounded=0;orthogonalLoop=1;jettySize=auto;html=1;endArrow=classic;endFill=1;" edge="1" parent="1">
          <mxGeometry relative="1" as="geometry">
            <mxPoint x="-940" y="-502.5" as="sourcePoint" />
            <mxPoint x="-1020" y="-647.5" as="targetPoint" />
            <Array as="points">
              <mxPoint x="-980" y="-502.5" />
              <mxPoint x="-980" y="-647.5" />
              <mxPoint x="-1020" y="-647.5" />
            </Array>
          </mxGeometry>
        </mxCell>
        <mxCell id="aQJiSQy_MHR7cHqMsdCa-66" style="edgeStyle=orthogonalEdgeStyle;rounded=0;orthogonalLoop=1;jettySize=auto;html=1;endArrow=classic;endFill=1;" edge="1" parent="1">
          <mxGeometry relative="1" as="geometry">
            <mxPoint x="-760" y="-555" as="sourcePoint" />
            <mxPoint x="-700" y="-650" as="targetPoint" />
            <Array as="points">
              <mxPoint x="-730" y="-555" />
              <mxPoint x="-730" y="-650" />
              <mxPoint x="-700" y="-650" />
            </Array>
          </mxGeometry>
        </mxCell>
        <mxCell id="aQJiSQy_MHR7cHqMsdCa-69" value="" style="endArrow=classic;startArrow=classic;html=1;rounded=0;" edge="1" parent="1">
          <mxGeometry width="50" height="50" relative="1" as="geometry">
            <mxPoint x="-160" y="-80" as="sourcePoint" />
            <mxPoint x="30" y="-80" as="targetPoint" />
          </mxGeometry>
        </mxCell>
        <mxCell id="aQJiSQy_MHR7cHqMsdCa-71" value="" style="endArrow=classic;startArrow=classic;html=1;rounded=0;" edge="1" parent="1">
          <mxGeometry width="50" height="50" relative="1" as="geometry">
            <mxPoint x="210" y="-80" as="sourcePoint" />
            <mxPoint x="280" y="-80" as="targetPoint" />
          </mxGeometry>
        </mxCell>
        <mxCell id="aQJiSQy_MHR7cHqMsdCa-72" value="PremierAPI" style="swimlane;" vertex="1" parent="1">
          <mxGeometry x="-340" y="-150" width="180" height="180" as="geometry" />
        </mxCell>
        <mxCell id="aQJiSQy_MHR7cHqMsdCa-79" value="predict_imagen" style="text;html=1;align=center;verticalAlign=middle;resizable=0;points=[];autosize=1;strokeColor=none;fillColor=none;" vertex="1" parent="aQJiSQy_MHR7cHqMsdCa-72">
          <mxGeometry x="35" y="50" width="110" height="30" as="geometry" />
        </mxCell>
        <mxCell id="aQJiSQy_MHR7cHqMsdCa-83" value="Red Neuronal" style="text;html=1;align=center;verticalAlign=middle;resizable=0;points=[];autosize=1;strokeColor=none;fillColor=none;" vertex="1" parent="aQJiSQy_MHR7cHqMsdCa-72">
          <mxGeometry x="40" y="90" width="100" height="30" as="geometry" />
        </mxCell>
        <mxCell id="aQJiSQy_MHR7cHqMsdCa-80" value="get_rapidapi_key" style="text;html=1;align=center;verticalAlign=middle;resizable=0;points=[];autosize=1;strokeColor=none;fillColor=none;" vertex="1" parent="aQJiSQy_MHR7cHqMsdCa-72">
          <mxGeometry x="35" y="130" width="110" height="30" as="geometry" />
        </mxCell>
        <mxCell id="aQJiSQy_MHR7cHqMsdCa-82" value="" style="endArrow=classic;startArrow=classic;html=1;rounded=0;" edge="1" parent="1">
          <mxGeometry width="50" height="50" relative="1" as="geometry">
            <mxPoint x="-480" y="-85" as="sourcePoint" />
            <mxPoint x="-340" y="-85" as="targetPoint" />
          </mxGeometry>
        </mxCell>
        <mxCell id="aQJiSQy_MHR7cHqMsdCa-84" style="edgeStyle=orthogonalEdgeStyle;rounded=0;orthogonalLoop=1;jettySize=auto;html=1;entryX=0;entryY=0.5;entryDx=0;entryDy=0;endArrow=classic;endFill=1;" edge="1" parent="1" target="3uMeJU92-yCko1yZ4MZb-28">
          <mxGeometry relative="1" as="geometry">
            <mxPoint x="-160" y="-15" as="sourcePoint" />
            <Array as="points">
              <mxPoint x="-160" y="-40" />
              <mxPoint x="-60" y="-40" />
              <mxPoint x="-60" y="170" />
            </Array>
          </mxGeometry>
        </mxCell>
        <mxCell id="aQJiSQy_MHR7cHqMsdCa-85" value="HTTP POST" style="swimlane;" vertex="1" parent="1">
          <mxGeometry x="-640" y="90" width="160" height="70" as="geometry" />
        </mxCell>
        <mxCell id="aQJiSQy_MHR7cHqMsdCa-87" value="url : /get_rapidapi_key" style="text;html=1;align=center;verticalAlign=middle;resizable=0;points=[];autosize=1;strokeColor=none;fillColor=none;" vertex="1" parent="aQJiSQy_MHR7cHqMsdCa-85">
          <mxGeometry x="15" y="20" width="140" height="30" as="geometry" />
        </mxCell>
        <mxCell id="aQJiSQy_MHR7cHqMsdCa-89" value="get_rapidapi_key" style="swimlane;" vertex="1" parent="1">
          <mxGeometry x="-360" y="-270" width="220" height="70" as="geometry">
            <mxRectangle x="-330" y="100" width="140" height="30" as="alternateBounds" />
          </mxGeometry>
        </mxCell>
        <mxCell id="aQJiSQy_MHR7cHqMsdCa-93" value="Llave de solicitudes (x-rapidapi-key)" style="text;html=1;align=center;verticalAlign=middle;resizable=0;points=[];autosize=1;strokeColor=none;fillColor=none;" vertex="1" parent="aQJiSQy_MHR7cHqMsdCa-89">
          <mxGeometry x="5" y="26" width="210" height="30" as="geometry" />
        </mxCell>
        <mxCell id="aQJiSQy_MHR7cHqMsdCa-94" style="edgeStyle=orthogonalEdgeStyle;rounded=0;orthogonalLoop=1;jettySize=auto;html=1;entryX=0.5;entryY=1;entryDx=0;entryDy=0;endArrow=classic;endFill=1;" edge="1" parent="1" source="aQJiSQy_MHR7cHqMsdCa-87" target="aQJiSQy_MHR7cHqMsdCa-72">
          <mxGeometry relative="1" as="geometry" />
        </mxCell>
        <mxCell id="aQJiSQy_MHR7cHqMsdCa-95" value="" style="endArrow=classic;startArrow=classic;html=1;rounded=0;entryX=0.5;entryY=1;entryDx=0;entryDy=0;exitX=0.5;exitY=0;exitDx=0;exitDy=0;" edge="1" parent="1" source="aQJiSQy_MHR7cHqMsdCa-72" target="aQJiSQy_MHR7cHqMsdCa-89">
          <mxGeometry width="50" height="50" relative="1" as="geometry">
            <mxPoint x="-440" y="-120" as="sourcePoint" />
            <mxPoint x="-390" y="-170" as="targetPoint" />
          </mxGeometry>
        </mxCell>
      </root>
    </mxGraphModel>
  </diagram>
</mxfile>
